<svg width="35" height="35" viewBox="0 0 35 35" fill="none" xmlns="http://www.w3.org/2000/svg">
<rect width="35" height="35" rx="17.5" fill="#7BCD3A"/>
<path d="M17.5 6C11.1462 6 6 11.1462 6 17.5C6 22.5888 9.29187 26.8869 13.8631 28.4106C14.4381 28.5112 14.6538 28.1663 14.6538 27.8644C14.6538 27.5912 14.6394 26.6856 14.6394 25.7225C11.75 26.2544 11.0025 25.0181 10.7725 24.3713C10.6431 24.0406 10.0825 23.02 9.59375 22.7469C9.19125 22.5312 8.61625 21.9994 9.57938 21.985C10.485 21.9706 11.1319 22.8187 11.3475 23.1637C12.3825 24.9031 14.0356 24.4144 14.6969 24.1125C14.7975 23.365 15.0994 22.8619 15.43 22.5744C12.8713 22.2869 10.1975 21.295 10.1975 16.8962C10.1975 15.6456 10.6431 14.6106 11.3762 13.8056C11.2613 13.5181 10.8587 12.3394 11.4913 10.7581C11.4913 10.7581 12.4544 10.4563 14.6538 11.9369C15.5737 11.6781 16.5513 11.5487 17.5288 11.5487C18.5063 11.5487 19.4838 11.6781 20.4038 11.9369C22.6031 10.4419 23.5662 10.7581 23.5662 10.7581C24.1987 12.3394 23.7962 13.5181 23.6812 13.8056C24.4144 14.6106 24.86 15.6312 24.86 16.8962C24.86 21.3094 22.1719 22.2869 19.6131 22.5744C20.03 22.9338 20.3894 23.6238 20.3894 24.7019C20.3894 26.24 20.375 27.4762 20.375 27.8644C20.375 28.1663 20.5906 28.5256 21.1656 28.4106C23.4487 27.6401 25.4326 26.1729 26.838 24.2157C28.2435 22.2584 28.9996 19.9096 29 17.5C29 11.1462 23.8538 6 17.5 6Z" fill="#222342"/>
</svg>
