<svg width="35" height="35" viewBox="0 0 35 35" fill="none" xmlns="http://www.w3.org/2000/svg">
<rect width="35" height="35" rx="17.5" fill="#7BCD3A"/>
<path d="M17.5 6C14.3792 6 13.9868 6.01438 12.7606 6.069C11.5344 6.1265 10.6992 6.31912 9.9675 6.60375C9.20001 6.89243 8.50483 7.34525 7.93056 7.93056C7.34561 8.50513 6.89284 9.20022 6.60375 9.9675C6.31912 10.6978 6.12506 11.5344 6.069 12.7562C6.01438 13.9853 6 14.3763 6 17.5014C6 20.6237 6.01438 21.0147 6.069 22.2409C6.1265 23.4656 6.31912 24.3008 6.60375 25.0325C6.89844 25.7886 7.29088 26.4297 7.93056 27.0694C8.56881 27.7091 9.20994 28.103 9.96606 28.3962C10.6992 28.6809 11.5329 28.8749 12.7577 28.931C13.9853 28.9856 14.3763 29 17.5 29C20.6237 29 21.0133 28.9856 22.2409 28.931C23.4642 28.8735 24.3022 28.6809 25.0339 28.3962C25.8009 28.1074 26.4956 27.6546 27.0694 27.0694C27.7091 26.4297 28.1016 25.7886 28.3962 25.0325C28.6794 24.3008 28.8735 23.4656 28.931 22.2409C28.9856 21.0147 29 20.6237 29 17.5C29 14.3763 28.9856 13.9853 28.931 12.7577C28.8735 11.5344 28.6794 10.6978 28.3962 9.9675C28.1072 9.2002 27.6544 8.5051 27.0694 7.93056C26.4953 7.34503 25.8001 6.89218 25.0325 6.60375C24.2994 6.31912 23.4627 6.12506 22.2394 6.069C21.0118 6.01438 20.6223 6 17.4971 6H17.5014H17.5ZM16.4693 8.07288H17.5014C20.5719 8.07288 20.9356 8.08294 22.1474 8.139C23.2687 8.18931 23.8782 8.37762 24.2836 8.53431C24.8197 8.74275 25.2036 8.99288 25.6061 9.39538C26.0086 9.79787 26.2572 10.1803 26.4657 10.7179C26.6238 11.1218 26.8107 11.7313 26.861 12.8526C26.9171 14.0644 26.9286 14.4281 26.9286 17.4971C26.9286 20.5662 26.9171 20.9313 26.861 22.1431C26.8107 23.2644 26.6224 23.8724 26.4657 24.2778C26.2813 24.7771 25.987 25.2286 25.6046 25.5989C25.2021 26.0014 24.8197 26.2501 24.2821 26.4585C23.8796 26.6166 23.2701 26.8035 22.1474 26.8553C20.9356 26.9099 20.5719 26.9228 17.5014 26.9228C14.4309 26.9228 14.0658 26.9099 12.854 26.8553C11.7328 26.8035 11.1247 26.6166 10.7193 26.4585C10.2198 26.2744 9.76787 25.9806 9.39681 25.5989C9.01408 25.228 8.71935 24.7761 8.53431 24.2764C8.37762 23.8724 8.18931 23.2629 8.139 22.1417C8.08438 20.9299 8.07288 20.5662 8.07288 17.4942C8.07288 14.4237 8.08438 14.0615 8.139 12.8497C8.19075 11.7284 8.37762 11.1189 8.53575 10.7136C8.74419 10.1774 8.99431 9.79356 9.39681 9.39106C9.79931 8.98856 10.1817 8.73988 10.7193 8.53144C11.1247 8.37331 11.7328 8.18644 12.854 8.13469C13.9149 8.08581 14.326 8.07144 16.4693 8.07V8.07288ZM23.6396 9.98187C23.4583 9.98187 23.2789 10.0176 23.1115 10.0869C22.944 10.1563 22.7919 10.2579 22.6638 10.3861C22.5356 10.5142 22.434 10.6663 22.3646 10.8338C22.2953 11.0012 22.2596 11.1807 22.2596 11.3619C22.2596 11.5431 22.2953 11.7225 22.3646 11.89C22.434 12.0574 22.5356 12.2095 22.6638 12.3377C22.7919 12.4658 22.944 12.5675 23.1115 12.6368C23.2789 12.7062 23.4583 12.7419 23.6396 12.7419C24.0056 12.7419 24.3566 12.5965 24.6154 12.3377C24.8742 12.0789 25.0196 11.7279 25.0196 11.3619C25.0196 10.9959 24.8742 10.6449 24.6154 10.3861C24.3566 10.1273 24.0056 9.98187 23.6396 9.98187ZM17.5014 11.5947C16.7181 11.5825 15.9402 11.7263 15.2129 12.0176C14.4857 12.3089 13.8236 12.742 13.2653 13.2916C12.7071 13.8412 12.2637 14.4964 11.9611 15.2191C11.6585 15.9417 11.5026 16.7173 11.5026 17.5007C11.5026 18.2842 11.6585 19.0598 11.9611 19.7824C12.2637 20.505 12.7071 21.1602 13.2653 21.7098C13.8236 22.2595 14.4857 22.6925 15.2129 22.9839C15.9402 23.2752 16.7181 23.4189 17.5014 23.4067C19.0518 23.3825 20.5306 22.7496 21.6184 21.6447C22.7063 20.5397 23.316 19.0513 23.316 17.5007C23.316 15.9501 22.7063 14.4617 21.6184 13.3568C20.5306 12.2518 19.0518 11.6189 17.5014 11.5947ZM17.5014 13.6662C18.5182 13.6662 19.4934 14.0701 20.2124 14.7891C20.9313 15.5081 21.3352 16.4832 21.3352 17.5C21.3352 18.5168 20.9313 19.4919 20.2124 20.2109C19.4934 20.9299 18.5182 21.3338 17.5014 21.3338C16.4846 21.3338 15.5095 20.9299 14.7905 20.2109C14.0715 19.4919 13.6676 18.5168 13.6676 17.5C13.6676 16.4832 14.0715 15.5081 14.7905 14.7891C15.5095 14.0701 16.4846 13.6662 17.5014 13.6662Z" fill="#222342"/>
</svg>
