<svg width="35" height="35" viewBox="0 0 35 35" fill="none" xmlns="http://www.w3.org/2000/svg">
<rect width="35" height="35" rx="17.5" fill="#7BCD3A"/>
<path d="M13.2249 27.5625C21.9045 27.5625 26.6526 20.3707 26.6526 14.1449C26.6526 13.9436 26.6526 13.7395 26.6439 13.5383C27.5683 12.8691 28.3661 12.0406 29 11.0916C28.1365 11.4724 27.2215 11.7233 26.2846 11.8363C27.2715 11.2464 28.0106 10.3182 28.3646 9.22432C27.4374 9.77362 26.4226 10.1592 25.3646 10.3643C24.6533 9.60673 23.712 9.10489 22.6866 8.93647C21.6612 8.76805 20.6089 8.94245 19.6927 9.43266C18.7764 9.92287 18.0474 10.7015 17.6185 11.648C17.1896 12.5945 17.0848 13.656 17.3203 14.6681C15.444 14.574 13.6084 14.0866 11.9326 13.2374C10.2568 12.3883 8.77823 11.1963 7.59275 9.73894C6.99093 10.7784 6.80726 12.0079 7.07905 13.1778C7.35085 14.3478 8.05772 15.3704 9.05612 16.0381C8.30796 16.0126 7.57625 15.8117 6.92 15.4516V15.5163C6.92129 16.6051 7.2985 17.6602 7.98788 18.503C8.67726 19.3459 9.63651 19.9249 10.7035 20.1421C10.2985 20.2537 9.88014 20.3093 9.46006 20.3074C9.16391 20.3083 8.86836 20.2809 8.57744 20.2255C8.87901 21.1628 9.46621 21.9824 10.2568 22.5693C11.0474 23.1563 12.0018 23.4812 12.9863 23.4987C11.3138 24.8123 9.24789 25.5247 7.12125 25.5213C6.74652 25.5228 6.37206 25.5012 6 25.4566C8.15843 26.8326 10.6651 27.5633 13.2249 27.5625Z" fill="#222342"/>
</svg>
